name Trialà11.sto
datacolumns 19
datarows 30
range 0.78800000 0.90400000
endheader

                time	     ground_force_vx	     ground_force_vy	     ground_force_vz	     ground_force_px	     ground_force_py	     ground_force_pz	     ground_force_vx	     ground_force_vy	     ground_force_vz	     ground_force_px	     ground_force_py	     ground_force_pz	     ground_torque_x	     ground_torque_y	     ground_torque_z	     ground_torque_x	     ground_torque_y	     ground_torque_z	
          0.78800000	        118.69956500	        433.76405199	         -9.97059767	          0.64385009	          0.00000000	          0.33597985	       -119.94194807	        423.96749031	         14.41178478	          1.40929305	          0.00000000	          0.23549325	       -147.53521800	         39.72527455	        279.43015576	        -95.64420531	        -63.39237195	        596.99010689	
          0.79200000	        118.65874383	        433.79519207	         -9.91499794	          0.64389352	          0.00000000	          0.33594218	       -119.81893782	        423.93359632	         14.49617084	          1.40901246	          0.00000000	          0.23527711	       -147.52890696	         39.67056537	        279.46821911	        -95.54929972	        -63.44975293	        596.82048722	
          0.79600000	        118.62357017	        433.83420032	         -9.85959577	          0.64394248	          0.00000000	          0.33590697	       -119.70157897	        423.88666764	         14.57221327	          1.40874299	          0.00000000	          0.23507653	       -147.52682248	         39.61653354	        279.51378779	        -95.45752492	        -63.49906598	        596.63749930	
          0.80000000	        118.59344893	        433.87742972	         -9.80431768	          0.64399715	          0.00000000	          0.33587437	       -119.59004710	        423.82828395	         14.63955733	          1.40848462	          0.00000000	          0.23489151	       -147.52777154	         39.56307253	        279.56459069	        -95.36921066	        -63.54002710	        596.44337941	
          0.80400000	        118.56760520	        433.92096898	         -9.74903577	          0.64405765	          0.00000000	          0.33584444	       -119.48443054	        423.76053020	         14.69803706	          1.40823696	          0.00000000	          0.23472159	       -147.53042903	         39.51000148	        279.61816341	        -95.28462789	        -63.57254337	        596.24091335	
          0.80800000	        118.54509882	        433.96071182	         -9.69357869	          0.64412408	          0.00000000	          0.33581716	       -119.38470601	        423.68594660	         14.74769533	          1.40799928	          0.00000000	          0.23456588	       -147.53335791	         39.45707288	        279.67189034	        -95.20397019	        -63.59672878	        596.03335727	
          0.81200000	        118.52484422	        433.99244306	         -9.63774629	          0.64419646	          0.00000000	          0.33579240	       -119.29071323	        423.60745774	         14.78879835	          1.40777041	          0.00000000	          0.23442301	       -147.53503595	         39.40398419	        279.72305804	        -95.12733495	        -63.61291322	        595.82433313	
          0.81600000	        118.50563540	        434.01194128	         -9.58132719	          0.64427473	          0.00000000	          0.33576994	       -119.20212902	        423.52828201	         14.82184430	          1.40754882	          0.00000000	          0.23429118	       -147.53388899	         39.35039286	        279.76891983	        -95.05470482	        -63.62164451	        595.61770074	
          0.82000000	        118.48617548	        434.01509738	         -9.52411889	          0.64435879	          0.00000000	          0.33574946	       -119.11844128	        423.45182277	         14.84756605	          1.40733259	          0.00000000	          0.23416812	       -147.52833033	         39.29593452	        279.80677129	        -94.98592960	        -63.62368348	        595.41740845	
          0.82400000	        118.46511061	        433.99804765	         -9.46594972	          0.64444846	          0.00000000	          0.33573055	       -119.03892341	        423.38154341	         14.86692827	          1.40711944	          0.00000000	          0.23405117	       -147.51680586	         39.24024379	        279.83403548	        -94.92070896	        -63.61999278	        595.22732526	
          0.82800000	        118.44106787	        433.95731870	         -9.40670174	          0.64454352	          0.00000000	          0.33571266	       -118.96260952	        423.32082814	         14.88111914	          1.40690674	          0.00000000	          0.23393727	       -147.49784391	         39.18297714	        279.84835638	        -94.85857621	        -63.61171985	        595.05105660	
          0.83200000	        118.41269645	        433.88998136	         -9.34633438	          0.64464363	          0.00000000	          0.33569517	       -118.88827079	        423.27283084	         14.89153703	          1.40669157	          0.00000000	          0.23382302	       -147.47010880	         39.12383717	        279.84769846	        -94.79888328	        -63.60017452	        594.89174660	
          0.83600000	        118.37871179	        433.79380990	         -9.28490789	          0.64474844	          0.00000000	          0.33567735	       -118.81439315	        423.24031402	         14.89977241	          1.40647073	          0.00000000	          0.23370475	       -147.43245699	         39.06259756	        279.83044998	        -94.74078690	        -63.58680165	        594.75186938	
          0.84000000	        118.33794172	        433.66744257	         -9.22260625	          0.64485748	          0.00000000	          0.33565837	       -118.73915641	        423.22548045	         14.90758532	          1.40624083	          0.00000000	          0.23357859	       -147.38399436	         38.99912817	        279.79552771	        -94.68323623	        -63.57314926	        594.63301207	
          0.84400000	        118.28937421	        433.51053953	         -9.15975889	          0.64497026	          0.00000000	          0.33563730	       -118.66041499	        423.22979976	         14.91687871	          1.40599828	          0.00000000	          0.23344050	       -147.32413318	         38.93341953	        279.74248051	        -94.62496185	        -63.56083222	        594.53565281	
          0.84800000	        118.23220586	        433.32393319	         -9.09686077	          0.64508621	          0.00000000	          0.33561315	       -118.57568003	        423.25383270	         14.92966794	          1.40573940	          0.00000000	          0.23328637	       -147.25264695	         38.86560641	        279.67158900	        -94.56446619	        -63.55149206	        594.45893702	
          0.85200000	        118.16589069	        433.10976655	         -9.03459004	          0.64520469	          0.00000000	          0.33558483	       -118.48210304	        423.29705580	         14.94804686	          1.40546045	          0.00000000	          0.23311213	       -147.16972142	         38.79598983	        279.58395855	        -94.50001565	        -63.54675310	        594.40045549	
          0.85600000	        118.09018832	        432.87161492	         -8.97382297	          0.64532503	          0.00000000	          0.33555117	       -118.37646073	        423.35768925	         14.97415090	          1.40515766	          0.00000000	          0.23291377	       -147.07600006	         38.72505713	        279.48160275	        -94.42963434	        -63.54817540	        594.35602814	
          0.86000000	        118.00521072	        432.61458687	         -8.91564531	          0.64544652	          0.00000000	          0.33551094	       -118.25514120	        423.43253086	         15.01011765	          1.40482735	          0.00000000	          0.23268746	       -146.97262254	         38.65349961	        279.36751488	        -94.35109968	        -63.55720505	        594.31949709	
          0.86400000	        117.91146656	        432.34540068	         -8.86135990	          0.64556842	          0.00000000	          0.33546286	       -118.11413143	        423.51679940	         15.05804538	          1.40446591	          0.00000000	          0.23242963	       -146.86125503	         38.58222699	        279.24572482	        -94.26194003	        -63.57512220	        594.28253333	
          0.86800000	        117.80990201	        432.07243302	         -8.81248971	          0.64569001	          0.00000000	          0.33540556	       -117.94900643	        423.60399069	         15.11995021	          1.40406992	          0.00000000	          0.23213701	       -146.74411121	         38.51237818	        279.12133926	        -94.15943432	        -63.60298772	        594.23446129	
          0.87200000	        117.70193712	        431.80573760	         -8.77077599	          0.64581055	          0.00000000	          0.33533765	       -117.75492031	        423.68575009	         15.19772255	          1.40363614	          0.00000000	          0.23180674	       -146.62396348	         38.44532759	        279.00056320	        -94.04061422	        -63.64158949	        594.16210626	
          0.87600000	        117.58949664	        431.55703225	         -8.73817071	          0.64592936	          0.00000000	          0.33525769	       -117.52659984	        423.75176566	         15.29308363	          1.40316158	          0.00000000	          0.23143639	       -146.50414383	         38.38268647	        278.89070149	        -93.90226884	        -63.69138917	        594.04966981	
          0.88000000	        117.47503449	        431.33965333	         -8.71682291	          0.64604580	          0.00000000	          0.33516423	       -117.25834115	        423.78968596	         15.40754304	          1.40264354	          0.00000000	          0.23102403	       -146.38853418	         38.32629854	        278.80013929	        -93.74095241	        -63.75247112	        593.87863860	
          0.88400000	        117.36155073	        431.16847699	         -8.70905832	          0.64615934	          0.00000000	          0.33505580	       -116.94401017	        423.78506715	         15.54235808	          1.40207961	          0.00000000	          0.23056826	       -146.28154594	         38.27822980	        278.73830055	        -93.55299514	        -63.82449445	        593.62773234	
          0.88800000	        117.25260027	        431.05980642	         -8.71735204	          0.64626950	          0.00000000	          0.33493095	       -116.57704774	        423.72135372	         15.69849611	          1.40146768	          0.00000000	          0.23006821	       -146.18808845	         38.24075204	        278.71558364	        -93.33451783	        -63.90665002	        593.27289654	
          0.89200000	        117.15229244	        431.03122505	         -8.74429414	          0.64637596	          0.00000000	          0.33478824	       -116.15048017	        423.57989713	         15.87660070	          1.40080600	          0.00000000	          0.22952359	       -146.11352621	         38.21632036	        278.74327337	        -93.08145032	        -63.99762370	        592.78734538	
          0.89600000	        117.06528075	        431.10141572	         -8.79254837	          0.64647852	          0.00000000	          0.33462633	       -115.65693632	        423.34001669	         16.07696268	          1.40009308	          0.00000000	          0.22893465	       -146.06362463	         38.20754461	        278.83342888	        -92.78955442	        -64.09556735	        592.14166034	
          0.90000000	        116.99674226	        431.28994659	         -8.86480422	          0.64657709	          0.00000000	          0.33444392	       -115.08867201	        422.97910662	         16.29949715	          1.39932774	          0.00000000	          0.22830214	       -146.04448442	         38.21715530	        278.99874748	        -92.45445179	        -64.19807915	        591.30394952	
          0.90400000	        116.95234629	        431.61702491	         -8.96372324	          0.64667174	          0.00000000	          0.33423984	       -114.43760303	        422.47279298	         16.54372710	          1.39850905	          0.00000000	          0.22762733	       -146.06246475	         38.24796437	        279.25240462	        -92.07165710	        -64.30219455	        590.24007273	
